<svg width="256" height="256" viewBox="0 0 256 256" fill="none" xmlns="http://www.w3.org/2000/svg">
<mask id="path-1-inside-1_400_2" fill="white">
<path d="M256 128C256 230.4 230.4 256 128 256C25.6 256 9.66373e-06 230.4 9.66373e-06 128C1.15298e-05 25.6 25.6 -5.59506e-06 128 -5.59506e-06C230.4 -5.59506e-06 256 25.6 256 128ZM176 133.655C176 110.119 167.148 94.9893 144.102 94.9893C133.266 94.9893 122.735 98.0456 115.104 104.923L115.104 47L80 52.96L80 208.085L115.104 208.085L115.104 149.397C115.104 132.128 124.261 121.429 131.892 121.429C138.76 121.429 140.744 128.307 140.744 138.699L140.744 208.085L176 208.085L176 133.655Z"/>
</mask>
<path d="M256 128L271 128L256 128ZM128 256L128 271L128 256ZM9.66373e-06 128L-15 128L9.66373e-06 128ZM128 -5.59506e-06L128 -15L128 -5.59506e-06ZM176 133.655L191 133.655L191 133.655L176 133.655ZM144.102 94.9893L144.102 79.9893L144.102 79.9893L144.102 94.9893ZM115.104 104.923L100.104 104.923C100.104 110.848 103.592 116.218 109.006 118.627C114.419 121.036 120.744 120.032 125.145 116.066L115.104 104.923ZM115.104 47L130.104 47C130.104 42.5828 128.157 38.3901 124.782 35.54C121.407 32.6899 116.948 31.4722 112.593 32.2116L115.104 47ZM80 52.96L77.4892 38.1716C70.277 39.3961 65 45.6445 65 52.96L80 52.96ZM80 208.085L65 208.085C65 212.063 66.5804 215.879 69.3934 218.692C72.2065 221.505 76.0218 223.085 80 223.085L80 208.085ZM115.104 208.085L115.104 223.085C123.388 223.085 130.104 216.369 130.104 208.085L115.104 208.085ZM115.104 149.397L130.104 149.397V149.397L115.104 149.397ZM131.892 121.429L131.892 106.429L131.891 106.429L131.892 121.429ZM140.744 138.699L155.744 138.699V138.699L140.744 138.699ZM140.744 208.085L125.744 208.085C125.744 216.369 132.46 223.085 140.744 223.085L140.744 208.085ZM176 208.085L176 223.085C179.978 223.085 183.794 221.505 186.607 218.692C189.42 215.879 191 212.063 191 208.085L176 208.085ZM256 128L241 128C241 179.307 234.223 205.364 219.793 219.793C205.364 234.223 179.307 241 128 241L128 256L128 271C179.093 271 217.036 264.977 241.007 241.007C264.977 217.036 271 179.093 271 128L256 128ZM128 256L128 241C76.6928 241 50.6365 234.223 36.2066 219.793C21.7767 205.363 15 179.307 15 128L9.66373e-06 128L-15 128C-15 179.093 -8.97671 217.036 14.9934 241.007C38.9635 264.977 76.9072 271 128 271L128 256ZM9.66373e-06 128L15 128C15 76.6928 21.7767 50.6365 36.2066 36.2066C50.6365 21.7767 76.6928 15 128 15L128 -5.59506e-06L128 -15C76.9072 -15 38.9635 -8.97672 14.9934 14.9934C-8.9767 38.9635 -15 76.9072 -15 128L9.66373e-06 128ZM128 -5.59506e-06L128 15C179.307 15 205.364 21.7767 219.793 36.2066C234.223 50.6365 241 76.6928 241 128L256 128L271 128C271 76.9072 264.977 38.9635 241.007 14.9934C217.037 -8.97672 179.093 -15 128 -15L128 -5.59506e-06ZM176 133.655L191 133.655C191 120.441 188.592 106.923 180.65 96.439C172.107 85.162 159.203 79.9893 144.102 79.9893L144.102 94.9893L144.102 109.989C152.046 109.989 155.091 112.382 156.736 114.554C158.982 117.519 161 123.333 161 133.655L176 133.655ZM144.102 94.9893L144.102 79.9893C130.679 79.9893 116.181 83.7591 105.062 93.7801L115.104 104.923L125.145 116.066C129.288 112.332 135.852 109.989 144.102 109.989L144.102 94.9893ZM115.104 104.923L130.104 104.923L130.104 47L115.104 47L100.104 47L100.104 104.923L115.104 104.923ZM115.104 47L112.593 32.2116L77.4892 38.1716L80 52.96L82.5108 67.7483L117.614 61.7884L115.104 47ZM80 52.96L65 52.96L65 208.085L80 208.085L95 208.085L95 52.96L80 52.96ZM80 208.085L80 223.085L115.104 223.085L115.104 208.085L115.104 193.085L80 193.085L80 208.085ZM115.104 208.085L130.104 208.085L130.104 149.397L115.104 149.397L100.104 149.397L100.104 208.085L115.104 208.085ZM115.104 149.397L130.104 149.397C130.104 143.353 131.71 139.354 133.092 137.295C134.821 134.718 134.992 136.429 131.892 136.429L131.892 121.429L131.891 106.429C121.16 106.429 112.937 113.489 108.18 120.579C103.076 128.187 100.104 138.172 100.104 149.397L115.104 149.397ZM131.892 121.429L131.892 136.429C130.978 136.429 129.279 136.152 127.564 134.95C125.962 133.827 125.334 132.588 125.208 132.308C125.113 132.095 125.295 132.431 125.47 133.686C125.638 134.888 125.744 136.531 125.744 138.699L140.744 138.699L155.744 138.699C155.744 133.119 155.304 126.098 152.579 120.025C151.098 116.727 148.687 113.119 144.781 110.382C140.762 107.565 136.239 106.429 131.892 106.429L131.892 121.429ZM140.744 138.699L125.744 138.699L125.744 208.085L140.744 208.085L155.744 208.085L155.744 138.699L140.744 138.699ZM140.744 208.085L140.744 223.085L176 223.085L176 208.085L176 193.085L140.744 193.085L140.744 208.085ZM176 208.085L191 208.085L191 133.655L176 133.655L161 133.655L161 208.085L176 208.085Z" fill="currentColor" mask="url(#path-1-inside-1_400_2)"/>
</svg>
