<svg xmlns="http://www.w3.org/2000/svg" width="24" height="24" viewBox="0 0 24 24"><g fill="none"><path d="m12.593 23.258l-.011.002l-.071.035l-.02.004l-.014-.004l-.071-.035q-.016-.005-.024.005l-.004.01l-.017.428l.005.02l.01.013l.104.074l.015.004l.012-.004l.104-.074l.012-.016l.004-.017l-.017-.427q-.004-.016-.017-.018m.265-.113l-.013.002l-.185.093l-.01.01l-.003.011l.018.43l.005.012l.008.007l.201.093q.019.005.029-.008l.004-.014l-.034-.614q-.005-.018-.02-.022m-.715.002a.02.02 0 0 0-.027.006l-.006.014l-.034.614q.001.018.017.024l.015-.002l.201-.093l.01-.008l.004-.011l.017-.43l-.003-.012l-.01-.01z"/><path fill="currentColor" d="M18 3a3 3 0 0 1 3 3v12a3 3 0 0 1-3 3H6a3 3 0 0 1-3-3V6a3 3 0 0 1 3-3zm0 2H6a1 1 0 0 0-1 1v12a1 1 0 0 0 1 1h12a1 1 0 0 0 1-1V6a1 1 0 0 0-1-1M8 10a1 1 0 0 1 .993.883L9 11v5a1 1 0 0 1-1.993.117L7 16v-5a1 1 0 0 1 1-1m3-1a1 1 0 0 1 .984.821a6 6 0 0 1 .623-.313c.667-.285 1.666-.442 2.568-.159c.473.15.948.43 1.3.907c.315.425.485.942.519 1.523L17 12v4a1 1 0 0 1-1.993.117L15 16v-4c0-.33-.08-.484-.132-.555a.55.55 0 0 0-.293-.188c-.348-.11-.849-.052-1.182.09c-.5.214-.958.55-1.27.861L12 12.34V16a1 1 0 0 1-1.993.117L10 16v-6a1 1 0 0 1 1-1M8 7a1 1 0 1 1 0 2a1 1 0 0 1 0-2"/></g></svg>